<svg xmlns="http://www.w3.org/2000/svg" viewBox="0 0 64 64"><defs><style>.cls-1{fill:none;}</style></defs><path d="M38.18,22.91h-19.35l6.05-6.05c.78-.78.78-2.05,0-2.83-.78-.78-2.05-.78-2.83,0l-9.46,9.46c-.09.09-.18.2-.25.31-.03.05-.05.1-.08.15-.04.06-.07.13-.1.2-.03.07-.04.13-.06.2-.02.06-.04.11-.05.17-.05.26-.05.52,0,.78.01.06.03.12.05.17.02.07.04.13.06.2.03.07.07.13.1.2.03.05.05.1.08.15.07.11.16.21.25.31l9.46,9.46c.39.39.9.59,1.41.59s1.02-.2,1.41-.59c.78-.78.78-2.05,0-2.83l-6.05-6.05h19.35c5.42,0,9.82,4.41,9.82,9.82s-4.41,9.83-9.82,9.83h-10.51c-1.1,0-2,.9-2,2s.9,2,2,2h10.51c7.62,0,13.82-6.2,13.82-13.83s-6.2-13.82-13.82-13.82Z"/><rect class="cls-1" y="0" width="64" height="64"/></svg>