<svg xmlns="http://www.w3.org/2000/svg" viewBox="0 0 64 64"><defs><style>.cls-1{fill:none;}</style></defs><path d="M32,53.38c-11.79,0-21.38-9.59-21.38-21.38,0-9.37,6.27-17.79,15.24-20.48.88-.26,1.82.1,2.29.89.47.78.35,1.79-.29,2.44-2.89,2.92-4.49,6.79-4.49,10.9,0,8.55,6.95,15.5,15.5,15.5,3.57,0,7.05-1.24,9.81-3.5.71-.58,1.72-.6,2.45-.06.74.54,1.01,1.52.67,2.36-3.29,8.09-11.07,13.32-19.8,13.32ZM20.61,18.91c-3.7,3.24-5.98,7.99-5.98,13.09,0,9.58,7.79,17.38,17.38,17.38,4.59,0,8.86-1.78,12.03-4.82-1.67.46-3.4.7-5.15.7-10.75,0-19.5-8.75-19.5-19.5,0-2.37.42-4.68,1.23-6.84Z"/><rect class="cls-1" y="0" width="64" height="64"/></svg>