<svg xmlns="http://www.w3.org/2000/svg" viewBox="0 0 64 64"><defs><style>.cls-1{fill:none;}.cls-2{fill-rule:evenodd;}</style></defs><rect class="cls-1" width="64" height="64"/><path d="M32,40c-4.41,0-8-3.59-8-8s3.59-8,8-8,8,3.59,8,8-3.59,8-8,8ZM32,28c-2.21,0-4,1.79-4,4s1.79,4,4,4,4-1.79,4-4-1.79-4-4-4Z"/><path class="cls-2" d="M51.42,35.45c-.37-.75-.87-1.27-1.24-1.62-.32-.3-.7-.6-1.01-.85l-1.22-.97v-.02l1.22-.97c.31-.25.69-.55,1.01-.85.37-.35.87-.87,1.24-1.62.47-.95.66-2,.56-3.05-.08-.83-.36-1.5-.59-1.96-.19-.39-.44-.81-.65-1.15l-.94-1.57c-.19-.32-.43-.72-.67-1.06-.28-.4-.71-.94-1.37-1.4-.83-.58-1.8-.93-2.81-1-.8-.06-1.47.08-1.94.22-.4.11-.84.27-1.19.4l-1.75.63h0c-.06-.04-.13-.08-.19-.11h0s-.26-1.54-.26-1.54c-.07-.38-.15-.85-.25-1.26-.12-.48-.34-1.15-.79-1.82-.58-.85-1.38-1.52-2.31-1.95-.74-.34-1.43-.43-1.93-.47-.42-.03-.89-.03-1.28-.03h-2.05c-.39,0-.86,0-1.28.03-.5.04-1.19.14-1.93.47-.94.43-1.74,1.1-2.31,1.95-.46.67-.67,1.34-.79,1.82-.1.41-.18.88-.25,1.26l-.26,1.53h0c-.07.04-.13.08-.19.11h0s-1.75-.63-1.75-.63c-.36-.13-.79-.29-1.19-.4-.47-.13-1.14-.27-1.94-.22-1.01.07-1.98.42-2.81,1-.65.46-1.08.99-1.37,1.4-.24.34-.48.74-.67,1.06l-.94,1.57c-.21.34-.46.76-.65,1.15-.23.46-.51,1.12-.59,1.96-.11,1.05.09,2.11.56,3.05.37.75.87,1.27,1.24,1.62.32.3.7.6,1.01.85l1.26.98-1.26.98c-.31.25-.69.55-1.01.85-.37.35-.87.87-1.24,1.62-.47.95-.66,2-.56,3.05.08.83.36,1.5.59,1.96.19.39.44.81.65,1.15l.94,1.57c.19.32.43.72.67,1.06.28.4.71.94,1.37,1.4.83.58,1.8.93,2.81,1,.8.06,1.47-.08,1.94-.22.4-.11.84-.27,1.19-.4l1.75-.63h0c.06.04.13.08.19.11h0s.26,1.54.26,1.54c.07.38.15.85.25,1.26.12.48.34,1.15.79,1.82.58.85,1.38,1.52,2.31,1.95.74.34,1.43.43,1.93.47.42.03.89.03,1.28.03h2.05c.39,0,.86,0,1.28-.03.5-.04,1.19-.14,1.93-.47.94-.43,1.74-1.1,2.31-1.95.46-.67.67-1.34.79-1.82.1-.41.18-.88.25-1.26l.26-1.53h0c.07-.04.13-.08.19-.11h0s1.75.63,1.75.63c.36.13.79.29,1.19.4.47.13,1.14.27,1.94.22,1.01-.07,1.98-.42,2.81-1,.65-.46,1.08-.99,1.37-1.4.24-.34.48-.74.67-1.06l.94-1.57c.21-.34.46-.76.65-1.15.23-.46.51-1.12.59-1.96.11-1.05-.09-2.11-.56-3.05ZM47.24,39.64l-.85,1.41c-.45.75-.68,1.13-1,1.36-.27.19-.59.3-.92.33-.39.03-.81-.12-1.63-.42l-1.87-.68c-.55-.2-.82-.3-1.06-.32-.24-.02-.38,0-.62.05-.24.06-.56.24-1.19.61-.05.03-.1.06-.15.08-.67.37-1,.55-1.18.73-.18.17-.26.3-.37.52-.11.23-.16.53-.26,1.12l-.29,1.66c-.15.88-.23,1.33-.45,1.65-.19.28-.45.5-.76.64-.36.17-.81.17-1.71.17h-1.87c-.9,0-1.34,0-1.71-.17-.31-.14-.57-.36-.76-.64-.22-.33-.3-.77-.45-1.65l-.29-1.66c-.1-.59-.15-.89-.26-1.12-.11-.22-.19-.35-.37-.52-.18-.18-.51-.36-1.18-.73l-1.34-.69c-.23-.06-.38-.07-.62-.05-.24.02-.52.12-1.06.32l-1.87.68c-.83.3-1.24.45-1.63.42-.33-.02-.65-.14-.92-.33-.32-.23-.55-.6-1-1.36l-.85-1.41c-.48-.8-.71-1.2-.76-1.6-.03-.34.03-.69.18-1,.18-.37.55-.66,1.27-1.23l1.33-1.06c.46-.37.7-.55.84-.75.16-.21.22-.35.29-.61.06-.24.06-.62.06-1.38s0-1.14-.06-1.38c-.07-.26-.14-.39-.29-.61-.15-.2-.38-.38-.84-.75l-1.33-1.06c-.73-.58-1.09-.87-1.27-1.23-.15-.31-.22-.66-.18-1,.04-.41.28-.81.76-1.6l.85-1.41c.45-.75.68-1.13,1-1.36.27-.19.59-.3.92-.33.39-.03.81.12,1.63.42l1.87.68c.55.2.82.3,1.06.32.24.02.38,0,.62-.05.24-.06.56-.24,1.19-.61.05-.03.1-.06.15-.08.67-.37,1-.55,1.18-.73.18-.17.26-.3.37-.52.11-.23.16-.53.26-1.12l.29-1.66c.15-.88.23-1.33.45-1.66.19-.28.45-.5.76-.64.36-.17.81-.17,1.71-.17h1.87c.9,0,1.34,0,1.71.17.31.14.57.36.76.64.22.33.3.77.45,1.66l.29,1.66c.1.59.15.89.26,1.12.11.22.19.35.37.52.18.18.51.36,1.18.73.05.03.1.05.15.08.64.36.96.55,1.19.61.23.06.38.07.62.05.24-.02.52-.12,1.06-.32l1.87-.68c.83-.3,1.24-.45,1.63-.42.33.02.65.14.92.33.32.23.55.6,1,1.36l.85,1.41c.48.8.71,1.2.76,1.6.03.34-.03.69-.18,1-.18.37-.55.66-1.27,1.23l-1.33,1.06c-.46.37-.7.55-.84.75-.16.21-.22.35-.29.61-.06.24-.06.62-.06,1.38s0,1.14.06,1.38c.07.26.14.39.29.61.15.2.38.38.84.75l1.33,1.06c.73.58,1.09.87,1.27,1.23.15.31.22.66.18,1-.04.41-.28.81-.76,1.6Z"/></svg>
