<svg xmlns="http://www.w3.org/2000/svg" viewBox="0 0 64 64"><defs><style>.cls-1{fill:none;}</style></defs><path d="M32,21c6.07,0,11,4.93,11,11s-4.93,11-11,11-11-4.93-11-11,4.93-11,11-11M32,17c-8.28,0-15,6.72-15,15s6.72,15,15,15,15-6.72,15-15-6.72-15-15-15h0Z"/><path d="M32,11.25c-1.1,0-2-.9-2-2V3.25c0-1.1.9-2,2-2s2,.9,2,2v6c0,1.1-.9,2-2,2Z"/><path d="M32,62.75c-1.1,0-2-.9-2-2v-6c0-1.1.9-2,2-2s2,.9,2,2v6c0,1.1-.9,2-2,2Z"/><rect class="cls-1" y="0" width="64" height="64"/><path d="M32,11.25c-1.1,0-2-.9-2-2V3.25c0-1.1.9-2,2-2s2,.9,2,2v6c0,1.1-.9,2-2,2Z"/><path d="M32,62.75c-1.1,0-2-.9-2-2v-6c0-1.1.9-2,2-2s2,.9,2,2v6c0,1.1-.9,2-2,2Z"/><path d="M46.67,17.33c-.78-.78-.78-2.05,0-2.83l4.24-4.24c.78-.78,2.05-.78,2.83,0s.78,2.05,0,2.83l-4.24,4.24c-.78.78-2.05.78-2.83,0Z"/><path d="M10.26,53.74c-.78-.78-.78-2.05,0-2.83l4.24-4.24c.78-.78,2.05-.78,2.83,0s.78,2.05,0,2.83l-4.24,4.24c-.78.78-2.05.78-2.83,0Z"/><path d="M52.75,32c0-1.1.9-2,2-2h6c1.1,0,2,.9,2,2s-.9,2-2,2h-6c-1.1,0-2-.9-2-2Z"/><path d="M1.25,32c0-1.1.9-2,2-2h6c1.1,0,2,.9,2,2s-.9,2-2,2H3.25c-1.1,0-2-.9-2-2Z"/><path d="M46.67,46.67c.78-.78,2.05-.78,2.83,0l4.24,4.24c.78.78.78,2.05,0,2.83s-2.05.78-2.83,0l-4.24-4.24c-.78-.78-.78-2.05,0-2.83Z"/><path d="M10.26,10.26c.78-.78,2.05-.78,2.83,0l4.24,4.24c.78.78.78,2.05,0,2.83s-2.05.78-2.83,0l-4.24-4.24c-.78-.78-.78-2.05,0-2.83Z"/></svg>
